<svg xmlns="http://www.w3.org/2000/svg" viewBox="0 0 371.913 195.046" role="img" aria-label="KAIsports logo">
  <g transform="translate(-0.081 194.941) scale(0.1 -0.1)" stroke="none">
    <g fill="#0085C7">
      <path d="M37 1938 c-9 -7 -21 -26 -27 -41 -11 -31 -13 -1333 -1 -1377 5 -21
60 -52 346 -197 187 -95 348 -172 358 -172 10 -1 108 45 217 100 l200 101 0
79 c0 44 -2 79 -5 79 -3 0 -98 -46 -211 -102 l-206 -103 -266 136 c-147 76
-267 143 -267 150 0 23 117 109 210 154 183 89 337 125 575 134 l165 6 0 65 0
65 -135 3 c-267 6 -529 -58 -750 -181 -41 -23 -78 -44 -82 -45 -5 -2 -7 110
-6 250 l3 253 265 135 c263 134 288 151 262 183 -6 7 -128 66 -271 132 -235
108 -261 123 -266 147 -11 49 -70 74 -108 46z"/>
    </g>
    <g fill="#1a2233">
            <path d="M1703 1278 l-118 -142 -3 137 -3 137 -69 0 -70 0 2 -312 3 -313 65 0
65 0 5 139 5 139 110 -134 c60 -74 114 -137 120 -141 5 -4 45 -8 89 -8 60 0
77 3 73 13 -3 7 -60 81 -127 166 -109 136 -120 154 -108 169 176 210 228 273
228 282 0 6 -31 10 -75 10 l-75 0 -117 -142z"/>
      <path d="M2255 1388 c-28 -63 -215 -579 -215 -594 0 -12 12 -14 67 -12 l67 3
24 63 24 63 125 -3 125 -3 23 -60 22 -60 71 -3 c40 -2 72 1 72 6 0 5 -12 41
-26 78 -15 38 -66 177 -115 309 l-88 240 -80 3 -81 3 -15 -33z m134 -244 c16
-44 32 -87 36 -96 6 -16 -1 -18 -78 -18 l-86 0 34 93 c50 139 47 131 56 114 5
-8 22 -50 38 -93z"/>
      <path d="M2742 1098 l3 -313 62 -3 c58 -3 63 -1 68 20 3 13 4 154 3 313 l-3
290 -68 3 -67 3 2 -313z"/>
      <path d="M3127 744 c-4 -4 -7 -38 -7 -76 l0 -68 -30 0 c-29 0 -30 -2 -30 -45
0 -43 1 -45 29 -45 l29 0 4 -140 c3 -137 3 -140 31 -167 25 -25 34 -28 100
-28 l72 0 0 45 c0 44 -1 45 -35 48 -57 6 -60 13 -60 133 l0 108 48 3 47 3 0
40 0 40 -47 3 -47 3 -3 72 -3 72 -45 3 c-25 2 -49 0 -53 -4z"/>
      <path d="M1525 596 c-51 -22 -85 -71 -85 -120 0 -74 51 -114 163 -131 63 -10
94 -34 79 -62 -22 -41 -109 -36 -139 7 -11 15 -26 20 -64 20 -57 0 -62 -13
-29 -68 56 -91 267 -97 324 -9 37 57 27 131 -23 166 -26 19 -46 25 -163 53
-31 7 -38 13 -38 33 0 48 72 61 116 20 22 -21 36 -25 68 -23 33 2 42 7 44 24
4 27 -29 68 -72 88 -41 19 -139 21 -181 2z"/>
      <path d="M2020 603 c-8 -3 -27 -14 -42 -24 -33 -24 -38 -24 -38 1 0 17 -7 20
-50 20 l-50 0 0 -301 0 -300 53 3 52 3 3 103 c1 56 5 102 7 102 3 0 19 -9 37
-20 39 -24 122 -27 171 -6 106 44 147 205 85 334 -28 59 -86 92 -159 91 -30 0
-61 -3 -69 -6z m80 -96 c56 -28 77 -133 40 -195 -38 -61 -117 -67 -164 -11
-22 25 -26 41 -26 91 0 55 3 63 34 94 37 37 72 43 116 21z"/>
      <path d="M2419 587 c-24 -13 -57 -43 -74 -66 -28 -40 -30 -49 -30 -131 0 -82
2 -91 30 -131 63 -90 191 -116 296 -61 153 80 144 321 -15 393 -60 27 -151 25
-207 -4z m160 -81 c35 -19 51 -55 51 -117 0 -91 -48 -139 -124 -125 -44 8 -73
44 -82 101 -16 110 67 186 155 141z"/>
      <path d="M2970 603 c-8 -3 -27 -16 -41 -30 l-26 -24 -7 25 c-6 24 -11 26 -56
26 l-50 0 2 -212 3 -213 53 -3 52 -3 0 121 c0 121 12 178 41 196 7 4 29 10 49
14 34 5 35 6 38 58 3 49 2 52 -20 51 -13 0 -30 -3 -38 -6z"/>
      <path d="M3441 593 c-51 -27 -76 -66 -76 -120 0 -39 5 -49 36 -78 27 -24 53
-36 95 -44 75 -15 103 -27 111 -47 9 -25 -21 -47 -68 -47 -34 0 -47 6 -64 27
-19 24 -28 27 -70 24 -27 -2 -50 -8 -52 -14 -5 -15 37 -73 70 -98 33 -25 147
-34 199 -17 87 29 127 135 74 198 -30 35 -79 57 -151 68 -57 8 -75 19 -75 46
0 43 74 52 118 14 31 -26 84 -33 111 -16 12 8 11 14 -5 41 -33 57 -67 74 -147
78 -55 2 -80 -1 -106 -15z"/>
    </g>
  </g>
</svg>
