<svg xmlns="http://www.w3.org/2000/svg" viewBox="0 0 60 195" role="img" aria-label="KAIsports mark">
  <g transform="translate(-0.081 194.941) scale(0.1 -0.1)" fill="#0085C7" stroke="none">
    <path d="M37 1938 c-9 -7 -21 -26 -27 -41 -11 -31 -13 -1333 -1 -1377 5 -21
60 -52 346 -197 187 -95 348 -172 358 -172 10 -1 108 45 217 100 l200 101 0
79 c0 44 -2 79 -5 79 -3 0 -98 -46 -211 -102 l-206 -103 -266 136 c-147 76
-267 143 -267 150 0 23 117 109 210 154 183 89 337 125 575 134 l165 6 0 65 0
65 -135 3 c-267 6 -529 -58 -750 -181 -41 -23 -78 -44 -82 -45 -5 -2 -7 110
-6 250 l3 253 265 135 c263 134 288 151 262 183 -6 7 -128 66 -271 132 -235
108 -261 123 -266 147 -11 49 -70 74 -108 46z"/>
  </g>
</svg>
