<svg xmlns="http://www.w3.org/2000/svg" viewBox="0 0 860 220" role="img" aria-labelledby="title">
  <title>Universitat des Saarlandes</title>
  <g fill="#1f4f8a">
    <path d="M73 181V78c0-14 11-25 25-25h15c12 0 20 4 27 14l16 23 11-49h44l16 20h40l16-20h44l11 49 16-23c7-10 15-14 27-14h15c14 0 25 11 25 25v103h-22V80c0-4-3-7-7-7s-7 3-7 7v83c0 5-4 9-9 9s-9-4-9-9V94c0-4-3-7-7-7s-7 3-7 7v57c0 5-4 9-9 9s-9-4-9-9v-1l-12 31h23l9 16h-14l3 12h-16l-12-16h-112l-12 16h-16l3-12h-14l9-16h23l-12-31v1c0 5-4 9-9 9s-9-4-9-9V94c0-4-3-7-7-7s-7 3-7 7v69c0 5-4 9-9 9s-9-4-9-9V80c0-4-3-7-7-7s-7 3-7 7v101H73zm106-66c0-4 3-7 7-7s7 3 7 7v28c0 5 4 9 9 9s9-4 9-9v-20c0-4 3-7 7-7s7 3 7 7v25c0 5 4 9 9 9s9-4 9-9v-46c0-4 3-7 7-7s7 3 7 7v38c0 5 4 9 9 9s9-4 9-9v-37c0-4 3-7 7-7s7 3 7 7v20c0 5 4 9 9 9s9-4 9-9v-28c0-4 3-7 7-7s7 3 7 7v42c0 5 4 9 9 9s9-4 9-9v-28c0-4 3-7 7-7s7 3 7 7v54h-172v-54zm95-44c0-14 12-26 26-26s26 12 26 26-12 26-26 26-26-12-26-26zm-77 0c0-14 12-26 26-26s26 12 26 26-12 26-26 26-26-12-26-26zm73 40 14-22 14 22-14 27-14-27zm-73-40c0 8 6 14 14 14s14-6 14-14-6-14-14-14-14 6-14 14zm77 0c0 8 6 14 14 14s14-6 14-14-6-14-14-14-14 6-14 14z"/>
    <path d="M390 80h280v26H390zM390 128h114v22H390zM390 170h370v26H390z"/>
    <path d="M793 80h27l32 90h-24l-7-21h-31l-7 21h-23l33-90zm3 51h18l-9-28-9 28z"/>
  </g>
</svg>
